<?xml version="1.0" standalone="no"?>
<!DOCTYPE svg PUBLIC "-//W3C//DTD SVG 20010904//EN"
 "http://www.w3.org/TR/2001/REC-SVG-20010904/DTD/svg10.dtd">
<svg version="1.0" xmlns="http://www.w3.org/2000/svg"
 width="1046.000000pt" height="1046.000000pt" viewBox="0 0 1046.000000 1046.000000"
 preserveAspectRatio="xMidYMid meet">
<metadata>
Created by potrace 1.11, written by Peter Selinger 2001-2013
</metadata>
<g transform="translate(0.000000,1046.000000) scale(0.100000,-0.100000)"
fill="#000000" stroke="none">
<path d="M5478 10455 c-2 -1 -38 -5 -81 -9 -274 -23 -575 -110 -839 -242 -199
-99 -336 -199 -498 -363 -247 -249 -424 -543 -543 -901 -53 -159 -86 -304
-121 -530 -31 -196 -26 -592 9 -805 2 -16 7 -48 11 -70 3 -22 9 -58 14 -80 5
-22 12 -56 15 -75 10 -62 73 -291 113 -415 81 -248 200 -539 367 -900 20 -44
45 -98 55 -120 10 -22 36 -79 59 -127 22 -48 50 -111 62 -140 12 -29 27 -66
34 -83 21 -48 75 -205 92 -265 13 -49 22 -85 37 -159 26 -121 24 -357 -3 -472
-7 -32 -3 -43 38 -111 49 -81 43 -77 166 -104 25 -5 176 -64 230 -90 201 -95
400 -258 538 -444 43 -57 107 -161 216 -350 17 -30 76 -145 131 -255 182 -363
274 -630 335 -970 29 -165 24 -458 -10 -612 -67 -292 -193 -515 -421 -740
-146 -143 -287 -231 -470 -292 -413 -136 -827 22 -994 382 -56 119 -77 261
-58 384 14 91 19 92 68 16 78 -121 182 -214 305 -273 102 -49 187 -71 296 -75
358 -15 683 237 763 590 21 94 17 322 -8 420 -21 81 -80 214 -124 277 -112
163 -322 290 -532 323 -25 4 -54 9 -65 11 -30 6 -203 5 -255 -1 -418 -52 -771
-294 -972 -665 -66 -122 -130 -306 -152 -440 -19 -111 -25 -311 -13 -433 15
-149 75 -346 149 -490 162 -315 434 -543 793 -663 59 -20 120 -38 134 -40 14
-3 42 -9 61 -14 146 -37 428 -44 665 -14 145 18 440 95 580 153 82 33 292 142
355 183 241 158 449 364 608 603 62 93 191 335 221 415 65 174 113 339 136
469 3 19 7 37 9 40 2 3 7 35 11 71 4 36 8 67 10 70 15 26 25 452 13 585 -12
137 -19 203 -24 232 -2 15 -6 42 -9 58 -2 17 -7 48 -10 70 -4 22 -10 56 -15
75 -5 19 -12 51 -15 70 -3 19 -17 80 -31 135 -14 55 -27 107 -29 115 -2 8 -13
46 -25 84 -12 38 -23 76 -25 85 -6 32 -97 275 -136 362 -41 94 -60 133 -231
474 -141 280 -186 379 -231 500 -86 234 -119 399 -119 605 0 94 3 130 23 241
9 56 9 56 -37 132 -41 66 -50 76 -82 82 -79 15 -252 79 -353 132 -195 101
-384 263 -510 438 -33 46 -105 161 -123 195 -4 8 -12 24 -19 35 -82 135 -246
452 -302 585 -15 36 -31 74 -36 85 -61 139 -148 419 -178 577 -50 268 -49 523
4 738 9 36 17 70 18 75 2 6 5 15 8 20 4 6 9 24 13 40 12 50 95 215 149 295
186 278 434 467 707 539 112 29 134 32 270 36 181 5 318 -24 464 -97 233 -117
393 -342 443 -623 14 -77 8 -246 -11 -335 -15 -71 -93 -259 -108 -260 -3 0 0
24 8 52 21 80 13 237 -15 322 -24 69 -73 160 -109 203 -35 41 -147 118 -218
151 -109 50 -202 69 -324 67 -212 -4 -397 -86 -536 -238 -76 -83 -119 -156
-155 -259 -35 -103 -43 -162 -42 -303 3 -266 102 -484 288 -638 102 -85 268
-157 393 -172 26 -3 57 -8 70 -11 33 -7 177 -6 242 1 144 17 341 78 460 143
229 127 429 339 537 571 32 69 90 230 98 273 2 11 6 27 9 36 3 9 8 40 12 67 3
28 8 53 10 56 7 12 17 166 16 249 -3 294 -82 565 -235 810 -23 36 -44 67 -47
70 -3 3 -30 34 -60 70 -193 231 -475 404 -770 474 -64 15 -141 29 -230 42 -44
6 -376 14 -382 9z"/>
</g>
</svg>
